<svg width="720" height="900" viewBox="0 0 720 900" fill="none" xmlns="http://www.w3.org/2000/svg">
<rect width="720" height="900" fill="#D9D9D9"/>
<rect width="720" height="900" fill="#050A24"/>
<path d="M98.116 73.44C97.9107 74.5973 97.4347 75.5587 96.688 76.324C95.9413 77.0893 95.0453 77.6213 94 77.92C94.9333 78.1253 95.6707 78.5827 96.212 79.292C96.7533 80.0013 97.024 80.832 97.024 81.784C97.024 82.0827 96.996 82.372 96.94 82.652C96.66 84.2947 95.8573 85.6013 94.532 86.572C93.2067 87.524 91.5173 88 89.464 88H80.308L83.78 68.344H92.628C94.4013 68.344 95.7733 68.708 96.744 69.436C97.7147 70.164 98.2 71.172 98.2 72.46C98.2 72.7773 98.172 73.104 98.116 73.44ZM90.276 76.324C91.0787 76.324 91.7227 76.1467 92.208 75.792C92.6933 75.4373 92.992 74.924 93.104 74.252C93.1227 74.14 93.132 73.9907 93.132 73.804C93.132 73.2627 92.9547 72.852 92.6 72.572C92.2453 72.2733 91.7227 72.124 91.032 72.124H87.896L87.168 76.324H90.276ZM92.18 82.008C92.2173 81.784 92.236 81.616 92.236 81.504C92.236 80.9627 92.04 80.5427 91.648 80.244C91.256 79.9267 90.7147 79.768 90.024 79.768H86.552L85.768 84.192H89.296C90.1173 84.192 90.7707 84.0053 91.256 83.632C91.7413 83.2587 92.0493 82.7173 92.18 82.008ZM114.417 84.528H107.081L105.289 88H100.277L110.861 68.344H116.405L120.045 88H114.977L114.417 84.528ZM113.857 80.888L112.709 73.608L108.957 80.888H113.857ZM130.442 84.36H136.714L136.07 88H125.01L128.482 68.344H133.27L130.442 84.36ZM154.005 84.528H146.669L144.877 88H139.865L150.449 68.344H155.993L159.633 88H154.565L154.005 84.528ZM153.445 80.888L152.297 73.608L148.545 80.888H153.445Z" fill="white"/>
<path d="M172.52 88.224C171.773 88.224 171.176 88.028 170.728 87.636C170.299 87.2253 170.084 86.712 170.084 86.096C170.084 85.2373 170.401 84.5093 171.036 83.912C171.689 83.3147 172.492 83.016 173.444 83.016C174.172 83.016 174.751 83.2213 175.18 83.632C175.609 84.024 175.824 84.5373 175.824 85.172C175.824 86.012 175.497 86.7307 174.844 87.328C174.209 87.9253 173.435 88.224 172.52 88.224Z" fill="#007DFA"/>
<g clip-path="url(#clip0_118_632)">
<g filter="url(#filter0_f_118_632)">
<circle cx="189.5" cy="954.5" r="189.5" fill="#2D55FB"/>
</g>
<g filter="url(#filter1_f_118_632)">
<circle cx="774.5" cy="53.5" r="189.5" fill="#2D55FB"/>
</g>
</g>
<defs>
<filter id="filter0_f_118_632" x="-550" y="215" width="1479" height="1479" filterUnits="userSpaceOnUse" color-interpolation-filters="sRGB">
<feFlood flood-opacity="0" result="BackgroundImageFix"/>
<feBlend mode="normal" in="SourceGraphic" in2="BackgroundImageFix" result="shape"/>
<feGaussianBlur stdDeviation="275" result="effect1_foregroundBlur_118_632"/>
</filter>
<filter id="filter1_f_118_632" x="35" y="-686" width="1479" height="1479" filterUnits="userSpaceOnUse" color-interpolation-filters="sRGB">
<feFlood flood-opacity="0" result="BackgroundImageFix"/>
<feBlend mode="normal" in="SourceGraphic" in2="BackgroundImageFix" result="shape"/>
<feGaussianBlur stdDeviation="275" result="effect1_foregroundBlur_118_632"/>
</filter>
<clipPath id="clip0_118_632">
<rect width="720" height="900" fill="white"/>
</clipPath>
</defs>
</svg>
